# xmcd CD database file
#
# Track frame offsets:
#	150
#	3735
#	19146
#	35431
#	59737
#	95747
#	122044
#	137184
#	155608
#	169975
#	200757
#	215255
#	227236
#	245306
#	256267
#
# Disc length: 3808 seconds
#
# Revision: 0
# Processed by: cddbd v1.5.1PL0 Copyright (c) Steve Scherf et al.
# Submitted via: CDex 1.51
#
DISCID=dd0ede0f
DTITLE=Jan-Erik Hedbom - The Lifebolt
DYEAR=1900
DGENRE=Blues
TTITLE0=The Lifebolt I
TTITLE1=The Lifebolt II
TTITLE2=The Lifebolt III
TTITLE3=The Lifebolt IV
TTITLE4=The Lifebolt V
TTITLE5=The Lifebolt VI
TTITLE6=The Lifebolt VII
TTITLE7=The Lifebolt VIII
TTITLE8=The Lifebolt IX
TTITLE9=The Lifebolt X
TTITLE10=The Lifebolt XI
TTITLE11=The Lifebolt XII
TTITLE12=The Lifebolt XIII
TTITLE13=The Lifebolt XIV
TTITLE14=The Lifebolt XV
EXTD=
EXTT0=
EXTT1=
EXTT2=
EXTT3=
EXTT4=
EXTT5=
EXTT6=
EXTT7=
EXTT8=
EXTT9=
EXTT10=
EXTT11=
EXTT12=
EXTT13=
EXTT14=
PLAYORDER=
